<?xml version="1.0" encoding="UTF-8" standalone="no"?>
<!DOCTYPE svg PUBLIC "-//W3C//DTD SVG 1.1//EN"
 "http://www.w3.org/Graphics/SVG/1.1/DTD/svg11.dtd">
<!-- Generated by graphviz version 3.0.0 (20220226.1711)
 -->
<!-- Title: dependencies Pages: 1 -->
<svg width="1599pt" height="174pt"
 viewBox="0.00 0.00 1599.00 173.80" xmlns="http://www.w3.org/2000/svg" xmlns:xlink="http://www.w3.org/1999/xlink">
<g id="graph0" class="graph" transform="scale(1 1) rotate(0) translate(4 169.8)">
<title>dependencies</title>
<polygon fill="white" stroke="transparent" points="-4,4 -4,-169.8 1595,-169.8 1595,4 -4,4"/>
<text text-anchor="middle" x="795.5" y="-8.2" font-family="sans-serif" font-size="14.00">dependencies</text>
<g id="clust1" class="cluster">
<title>cluster_InboxModule</title>
<polygon fill="none" stroke="black" stroke-dasharray="1,5" points="8,-32.8 8,-157.8 1583,-157.8 1583,-32.8 8,-32.8"/>
</g>
<g id="clust2" class="cluster">
<title>cluster_InboxModule_declarations</title>
<polygon fill="none" stroke="black" points="294,-40.8 294,-92.8 1575,-92.8 1575,-40.8 294,-40.8"/>
</g>
<g id="clust11" class="cluster">
<title>cluster_InboxModule_imports</title>
<polygon fill="none" stroke="black" points="16,-40.8 16,-92.8 286,-92.8 286,-40.8 16,-40.8"/>
</g>
<!-- EmailCreateComponent -->
<g id="node1" class="node">
<title>EmailCreateComponent</title>
<polygon fill="#ffffb3" stroke="black" points="1566.8,-84.8 1415.2,-84.8 1415.2,-48.8 1566.8,-48.8 1566.8,-84.8"/>
<text text-anchor="middle" x="1491" y="-62.6" font-family="Times,serif" font-size="14.00">EmailCreateComponent</text>
</g>
<!-- InboxModule -->
<g id="node9" class="node">
<title>InboxModule</title>
<polygon fill="#8dd3c7" stroke="black" points="802.21,-149.8 799.21,-153.8 778.21,-153.8 775.21,-149.8 709.79,-149.8 709.79,-113.8 802.21,-113.8 802.21,-149.8"/>
<text text-anchor="middle" x="756" y="-127.6" font-family="Times,serif" font-size="14.00">InboxModule</text>
</g>
<!-- EmailCreateComponent&#45;&gt;InboxModule -->
<g id="edge1" class="edge">
<title>EmailCreateComponent&#45;&gt;InboxModule</title>
<path fill="none" stroke="black" d="M1491,-84.81C1491,-107.29 1491,-142.8 1491,-142.8 1491,-142.8 812.26,-142.8 812.26,-142.8"/>
<polygon fill="black" stroke="black" points="812.26,-139.3 802.26,-142.8 812.26,-146.3 812.26,-139.3"/>
</g>
<!-- EmailFormComponent -->
<g id="node2" class="node">
<title>EmailFormComponent</title>
<polygon fill="#ffffb3" stroke="black" points="1397.6,-84.8 1252.4,-84.8 1252.4,-48.8 1397.6,-48.8 1397.6,-84.8"/>
<text text-anchor="middle" x="1325" y="-62.6" font-family="Times,serif" font-size="14.00">EmailFormComponent</text>
</g>
<!-- EmailFormComponent&#45;&gt;InboxModule -->
<g id="edge2" class="edge">
<title>EmailFormComponent&#45;&gt;InboxModule</title>
<path fill="none" stroke="black" d="M1325,-84.93C1325,-105.37 1325,-135.8 1325,-135.8 1325,-135.8 812.56,-135.8 812.56,-135.8"/>
<polygon fill="black" stroke="black" points="812.56,-132.3 802.56,-135.8 812.56,-139.3 812.56,-132.3"/>
</g>
<!-- EmailIndexComponent -->
<g id="node3" class="node">
<title>EmailIndexComponent</title>
<polygon fill="#ffffb3" stroke="black" points="1234.14,-84.8 1087.86,-84.8 1087.86,-48.8 1234.14,-48.8 1234.14,-84.8"/>
<text text-anchor="middle" x="1161" y="-62.6" font-family="Times,serif" font-size="14.00">EmailIndexComponent</text>
</g>
<!-- EmailIndexComponent&#45;&gt;InboxModule -->
<g id="edge3" class="edge">
<title>EmailIndexComponent&#45;&gt;InboxModule</title>
<path fill="none" stroke="black" d="M1161,-85.07C1161,-103.36 1161,-128.8 1161,-128.8 1161,-128.8 812.46,-128.8 812.46,-128.8"/>
<polygon fill="black" stroke="black" points="812.46,-125.3 802.46,-128.8 812.46,-132.3 812.46,-125.3"/>
</g>
<!-- EmailReplyComponent -->
<g id="node4" class="node">
<title>EmailReplyComponent</title>
<polygon fill="#ffffb3" stroke="black" points="1070.21,-84.8 921.79,-84.8 921.79,-48.8 1070.21,-48.8 1070.21,-84.8"/>
<text text-anchor="middle" x="996" y="-62.6" font-family="Times,serif" font-size="14.00">EmailReplyComponent</text>
</g>
<!-- EmailReplyComponent&#45;&gt;InboxModule -->
<g id="edge4" class="edge">
<title>EmailReplyComponent&#45;&gt;InboxModule</title>
<path fill="none" stroke="black" d="M996,-84.81C996,-100.85 996,-121.8 996,-121.8 996,-121.8 812.27,-121.8 812.27,-121.8"/>
<polygon fill="black" stroke="black" points="812.27,-118.3 802.27,-121.8 812.27,-125.3 812.27,-118.3"/>
</g>
<!-- EmailShowComponent -->
<g id="node5" class="node">
<title>EmailShowComponent</title>
<polygon fill="#ffffb3" stroke="black" points="904.16,-84.8 757.84,-84.8 757.84,-48.8 904.16,-48.8 904.16,-84.8"/>
<text text-anchor="middle" x="831" y="-62.6" font-family="Times,serif" font-size="14.00">EmailShowComponent</text>
</g>
<!-- EmailShowComponent&#45;&gt;InboxModule -->
<g id="edge5" class="edge">
<title>EmailShowComponent&#45;&gt;InboxModule</title>
<path fill="none" stroke="black" d="M779.89,-84.91C779.89,-84.91 779.89,-103.79 779.89,-103.79"/>
<polygon fill="black" stroke="black" points="776.39,-103.79 779.89,-113.79 783.39,-103.79 776.39,-103.79"/>
</g>
<!-- HomeComponent -->
<g id="node6" class="node">
<title>HomeComponent</title>
<polygon fill="#ffffb3" stroke="black" points="739.55,-84.8 624.45,-84.8 624.45,-48.8 739.55,-48.8 739.55,-84.8"/>
<text text-anchor="middle" x="682" y="-62.6" font-family="Times,serif" font-size="14.00">HomeComponent</text>
</g>
<!-- HomeComponent&#45;&gt;InboxModule -->
<g id="edge6" class="edge">
<title>HomeComponent&#45;&gt;InboxModule</title>
<path fill="none" stroke="black" d="M724.83,-84.91C724.83,-84.91 724.83,-103.79 724.83,-103.79"/>
<polygon fill="black" stroke="black" points="721.33,-103.79 724.83,-113.79 728.33,-103.79 721.33,-103.79"/>
</g>
<!-- NotFoundComponent -->
<g id="node7" class="node">
<title>NotFoundComponent</title>
<polygon fill="#ffffb3" stroke="black" points="606.12,-84.8 467.88,-84.8 467.88,-48.8 606.12,-48.8 606.12,-84.8"/>
<text text-anchor="middle" x="537" y="-62.6" font-family="Times,serif" font-size="14.00">NotFoundComponent</text>
</g>
<!-- NotFoundComponent&#45;&gt;InboxModule -->
<g id="edge7" class="edge">
<title>NotFoundComponent&#45;&gt;InboxModule</title>
<path fill="none" stroke="black" d="M537,-84.81C537,-100.85 537,-121.8 537,-121.8 537,-121.8 699.82,-121.8 699.82,-121.8"/>
<polygon fill="black" stroke="black" points="699.82,-125.3 709.82,-121.8 699.82,-118.3 699.82,-125.3"/>
</g>
<!-- PlaceholderComponent -->
<g id="node8" class="node">
<title>PlaceholderComponent</title>
<polygon fill="#ffffb3" stroke="black" points="449.91,-84.8 302.09,-84.8 302.09,-48.8 449.91,-48.8 449.91,-84.8"/>
<text text-anchor="middle" x="376" y="-62.6" font-family="Times,serif" font-size="14.00">PlaceholderComponent</text>
</g>
<!-- PlaceholderComponent&#45;&gt;InboxModule -->
<g id="edge8" class="edge">
<title>PlaceholderComponent&#45;&gt;InboxModule</title>
<path fill="none" stroke="black" d="M376,-85.07C376,-103.36 376,-128.8 376,-128.8 376,-128.8 699.78,-128.8 699.78,-128.8"/>
<polygon fill="black" stroke="black" points="699.78,-132.3 709.78,-128.8 699.78,-125.3 699.78,-132.3"/>
</g>
<!-- InboxRoutingModule -->
<g id="node10" class="node">
<title>InboxRoutingModule</title>
<polygon fill="#8dd3c7" stroke="black" points="277.83,-84.8 274.83,-88.8 253.83,-88.8 250.83,-84.8 140.17,-84.8 140.17,-48.8 277.83,-48.8 277.83,-84.8"/>
<text text-anchor="middle" x="209" y="-62.6" font-family="Times,serif" font-size="14.00">InboxRoutingModule</text>
</g>
<!-- InboxRoutingModule&#45;&gt;InboxModule -->
<g id="edge9" class="edge">
<title>InboxRoutingModule&#45;&gt;InboxModule</title>
<path fill="none" stroke="black" d="M209,-84.93C209,-105.37 209,-135.8 209,-135.8 209,-135.8 699.83,-135.8 699.83,-135.8"/>
<polygon fill="black" stroke="black" points="699.83,-139.3 709.83,-135.8 699.83,-132.3 699.83,-139.3"/>
</g>
<!-- SharedModule -->
<g id="node11" class="node">
<title>SharedModule</title>
<polygon fill="#8dd3c7" stroke="black" points="122.43,-84.8 119.43,-88.8 98.43,-88.8 95.43,-84.8 23.57,-84.8 23.57,-48.8 122.43,-48.8 122.43,-84.8"/>
<text text-anchor="middle" x="73" y="-62.6" font-family="Times,serif" font-size="14.00">SharedModule</text>
</g>
<!-- SharedModule&#45;&gt;InboxModule -->
<g id="edge10" class="edge">
<title>SharedModule&#45;&gt;InboxModule</title>
<path fill="none" stroke="black" d="M73,-84.81C73,-107.29 73,-142.8 73,-142.8 73,-142.8 699.86,-142.8 699.86,-142.8"/>
<polygon fill="black" stroke="black" points="699.86,-146.3 709.86,-142.8 699.86,-139.3 699.86,-146.3"/>
</g>
</g>
</svg>
