<?xml version="1.0" encoding="UTF-8" standalone="no"?>
<!DOCTYPE svg PUBLIC "-//W3C//DTD SVG 1.1//EN"
 "http://www.w3.org/Graphics/SVG/1.1/DTD/svg11.dtd">
<!-- Generated by graphviz version 3.0.0 (20220226.1711)
 -->
<!-- Title: dependencies Pages: 1 -->
<svg width="774pt" height="247pt"
 viewBox="0.00 0.00 774.00 246.80" xmlns="http://www.w3.org/2000/svg" xmlns:xlink="http://www.w3.org/1999/xlink">
<g id="graph0" class="graph" transform="scale(1 1) rotate(0) translate(4 242.8)">
<title>dependencies</title>
<polygon fill="white" stroke="transparent" points="-4,4 -4,-242.8 770,-242.8 770,4 -4,4"/>
<text text-anchor="middle" x="383" y="-8.2" font-family="sans-serif" font-size="14.00">dependencies</text>
<g id="clust1" class="cluster">
<title>cluster_AppModule</title>
<polygon fill="none" stroke="black" stroke-dasharray="1,5" points="8,-32.8 8,-230.8 758,-230.8 758,-32.8 8,-32.8"/>
</g>
<g id="clust2" class="cluster">
<title>cluster_AppModule_declarations</title>
<polygon fill="none" stroke="black" points="628,-40.8 628,-92.8 750,-92.8 750,-40.8 628,-40.8"/>
</g>
<g id="clust7" class="cluster">
<title>cluster_AppModule_providers</title>
<polygon fill="none" stroke="black" points="424,-40.8 424,-92.8 620,-92.8 620,-40.8 424,-40.8"/>
</g>
<g id="clust4" class="cluster">
<title>cluster_AppModule_imports</title>
<polygon fill="none" stroke="black" points="16,-40.8 16,-92.8 416,-92.8 416,-40.8 16,-40.8"/>
</g>
<g id="clust6" class="cluster">
<title>cluster_AppModule_bootstrap</title>
<polygon fill="none" stroke="black" points="282,-170.8 282,-222.8 406,-222.8 406,-170.8 282,-170.8"/>
</g>
<!-- AppComponent -->
<g id="node1" class="node">
<title>AppComponent</title>
<polygon fill="#ffffb3" stroke="black" points="741.94,-84.8 636.06,-84.8 636.06,-48.8 741.94,-48.8 741.94,-84.8"/>
<text text-anchor="middle" x="689" y="-62.6" font-family="Times,serif" font-size="14.00">AppComponent</text>
</g>
<!-- AppModule -->
<g id="node2" class="node">
<title>AppModule</title>
<polygon fill="#8dd3c7" stroke="black" points="385.66,-149.8 382.66,-153.8 361.66,-153.8 358.66,-149.8 302.34,-149.8 302.34,-113.8 385.66,-113.8 385.66,-149.8"/>
<text text-anchor="middle" x="344" y="-127.6" font-family="Times,serif" font-size="14.00">AppModule</text>
</g>
<!-- AppComponent&#45;&gt;AppModule -->
<g id="edge1" class="edge">
<title>AppComponent&#45;&gt;AppModule</title>
<path fill="none" stroke="black" d="M689,-85.08C689,-106.12 689,-137.8 689,-137.8 689,-137.8 395.96,-137.8 395.96,-137.8"/>
<polygon fill="black" stroke="black" points="395.96,-134.3 385.96,-137.8 395.96,-141.3 395.96,-134.3"/>
</g>
<!-- AppComponent  -->
<g id="node6" class="node">
<title>AppComponent </title>
<polygon fill="#80b1d3" stroke="black" points="398.44,-214.8 289.56,-214.8 289.56,-178.8 398.44,-178.8 398.44,-214.8"/>
<text text-anchor="middle" x="344" y="-192.6" font-family="Times,serif" font-size="14.00">AppComponent </text>
</g>
<!-- AppModule&#45;&gt;AppComponent  -->
<g id="edge5" class="edge">
<title>AppModule&#45;&gt;AppComponent </title>
<path fill="none" stroke="black" stroke-dasharray="1,5" d="M344,-149.91C344,-149.91 344,-168.79 344,-168.79"/>
<polygon fill="black" stroke="black" points="340.5,-168.79 344,-178.79 347.5,-168.79 340.5,-168.79"/>
</g>
<!-- AppRoutingModule -->
<g id="node3" class="node">
<title>AppRoutingModule</title>
<polygon fill="#8dd3c7" stroke="black" points="408.28,-84.8 405.28,-88.8 384.28,-88.8 381.28,-84.8 279.72,-84.8 279.72,-48.8 408.28,-48.8 408.28,-84.8"/>
<text text-anchor="middle" x="344" y="-62.6" font-family="Times,serif" font-size="14.00">AppRoutingModule</text>
</g>
<!-- AppRoutingModule&#45;&gt;AppModule -->
<g id="edge2" class="edge">
<title>AppRoutingModule&#45;&gt;AppModule</title>
<path fill="none" stroke="black" d="M344,-84.91C344,-84.91 344,-103.79 344,-103.79"/>
<polygon fill="black" stroke="black" points="340.5,-103.79 344,-113.79 347.5,-103.79 340.5,-103.79"/>
</g>
<!-- AuthModule -->
<g id="node4" class="node">
<title>AuthModule</title>
<polygon fill="#8dd3c7" stroke="black" points="261.55,-84.8 258.55,-88.8 237.55,-88.8 234.55,-84.8 174.45,-84.8 174.45,-48.8 261.55,-48.8 261.55,-84.8"/>
<text text-anchor="middle" x="218" y="-62.6" font-family="Times,serif" font-size="14.00">AuthModule</text>
</g>
<!-- AuthModule&#45;&gt;AppModule -->
<g id="edge3" class="edge">
<title>AuthModule&#45;&gt;AppModule</title>
<path fill="none" stroke="black" d="M218,-84.82C218,-102.17 218,-125.8 218,-125.8 218,-125.8 292.04,-125.8 292.04,-125.8"/>
<polygon fill="black" stroke="black" points="292.04,-129.3 302.04,-125.8 292.04,-122.3 292.04,-129.3"/>
</g>
<!-- AuthRoutingModule -->
<g id="node5" class="node">
<title>AuthRoutingModule</title>
<polygon fill="#8dd3c7" stroke="black" points="156.17,-84.8 153.17,-88.8 132.17,-88.8 129.17,-84.8 23.83,-84.8 23.83,-48.8 156.17,-48.8 156.17,-84.8"/>
<text text-anchor="middle" x="90" y="-62.6" font-family="Times,serif" font-size="14.00">AuthRoutingModule</text>
</g>
<!-- AuthRoutingModule&#45;&gt;AppModule -->
<g id="edge4" class="edge">
<title>AuthRoutingModule&#45;&gt;AppModule</title>
<path fill="none" stroke="black" d="M90,-85.08C90,-106.12 90,-137.8 90,-137.8 90,-137.8 292.06,-137.8 292.06,-137.8"/>
<polygon fill="black" stroke="black" points="292.06,-141.3 302.06,-137.8 292.06,-134.3 292.06,-141.3"/>
</g>
<!-- AuthHttpInterceptor -->
<g id="node7" class="node">
<title>AuthHttpInterceptor</title>
<ellipse fill="#fdb462" stroke="black" cx="522" cy="-66.8" rx="89.75" ry="18"/>
<text text-anchor="middle" x="522" y="-62.6" font-family="Times,serif" font-size="14.00">AuthHttpInterceptor</text>
</g>
<!-- AuthHttpInterceptor&#45;&gt;AppModule -->
<g id="edge6" class="edge">
<title>AuthHttpInterceptor&#45;&gt;AppModule</title>
<path fill="none" stroke="black" d="M522,-84.82C522,-102.17 522,-125.8 522,-125.8 522,-125.8 395.73,-125.8 395.73,-125.8"/>
<polygon fill="black" stroke="black" points="395.73,-122.3 385.73,-125.8 395.73,-129.3 395.73,-122.3"/>
</g>
</g>
</svg>
